<svg id="Layer_1" enable-background="new 0 0 512 512" height="512" viewBox="0 0 512 512" width="512" xmlns="http://www.w3.org/2000/svg"><g><path d="m384 461.77c0 3.441-2.789 6.23-6.23 6.23h-243.54c-3.441 0-6.23-2.789-6.23-6.23 0-12.576 10.194-22.77 22.77-22.77 60.31 0 63.08-62 63.08-62h84.31s2.77 62 63.07 62c12.576 0 22.77 10.194 22.77 22.77z" fill="#e4e4e4"/><path d="m361.23 439c-60.3 0-63.07-62-63.07-62h-30s2.77 62 63.07 62c12.576 0 22.77 10.194 22.77 22.77 0 3.441-2.789 6.23-6.23 6.23h30c3.441 0 6.23-2.789 6.23-6.23 0-12.576-10.194-22.77-22.77-22.77z" fill="#d2d2d2"/><path d="m469.404 377h-426.808c-19.383 0-35.096-15.713-35.096-35.096v-262.808c0-19.383 15.713-35.096 35.096-35.096h426.808c19.383 0 35.096 15.713 35.096 35.096v262.808c0 19.383-15.713 35.096-35.096 35.096z" fill="#4380a0"/><path d="m469.404 44h-30c19.383 0 35.096 15.713 35.096 35.096v262.808c0 19.383-15.713 35.096-35.096 35.096h30c19.383 0 35.096-15.713 35.096-35.096v-262.808c0-19.383-15.713-35.096-35.096-35.096z" fill="#3b7191"/><path d="m131.5-20h249v437h-249z" fill="#bbf7ff" transform="matrix(0 1 -1 0 454.5 -57.5)"/><path d="m444.5 74h30v249h-30z" fill="#8bf0ff"/><path d="m469.404 377h-426.808c-19.383 0-35.096-15.713-35.096-35.096v-18.904h497v18.904c0 19.383-15.713 35.096-35.096 35.096z" fill="#f3f3f3"/><path d="m474.5 323v18.904c0 19.383-15.713 35.096-35.096 35.096h30c19.383 0 35.096-15.713 35.096-35.096v-18.904z" fill="#e4e4e4"/><path d="m377.77 468h-243.54c-3.441 0-6.23-2.789-6.23-6.23 0-12.576 10.194-22.77 22.77-22.77h210.46c12.576 0 22.77 10.194 22.77 22.77 0 3.441-2.789 6.23-6.23 6.23z" fill="#f3f3f3"/><path d="m361.23 439h-30c12.576 0 22.77 10.194 22.77 22.77 0 3.441-2.789 6.23-6.23 6.23h30c3.441 0 6.23-2.789 6.23-6.23 0-12.576-10.194-22.77-22.77-22.77z" fill="#e4e4e4"/><circle cx="347" cy="198.5" fill="#7be492" r="62"/><path d="m347 136.5c-4.685 0-9.241.537-13.629 1.521 27.682 6.212 48.371 30.922 48.371 60.479s-20.689 54.266-48.371 60.479c4.387.985 8.944 1.521 13.629 1.521 34.242 0 62-27.758 62-62s-27.758-62-62-62z" fill="#45d987"/><path d="m247.914 274.055v48.945h-144.91v-48.945c0-16.847 13.658-30.505 30.505-30.505h83.9c16.847 0 30.505 13.658 30.505 30.505z" fill="#f75632"/><path d="m217.409 243.55h-30c16.847 0 30.505 13.658 30.505 30.505v48.945h30v-48.945c0-16.847-13.658-30.505-30.505-30.505z" fill="#e33629"/><path d="m103.004 285.059h30v37.941h-30z" fill="#ffc6a1"/><path d="m217.914 285.059h30v37.941h-30z" fill="#fdaa8e"/><path d="m157.64 194.641h35.635v48.917h-35.635z" fill="#fd9b7a"/><g fill="#fd9b7a"><path d="m130.051 174.227c0 9.497-6.466 17.195-14.441 17.195s-12.61-8.841-12.61-18.337 4.633-16.053 12.609-16.053 14.442 7.699 14.442 17.195z"/><path d="m220.863 174.227c0 9.497 6.466 17.195 14.441 17.195 7.976 0 12.609-8.841 12.609-18.338s-4.633-16.053-12.609-16.053c-7.975.001-14.441 7.7-14.441 17.196z"/></g><path d="m127.758 175.55v-35.288c0-24.824 20.123-44.947 44.947-44.947h5.504c24.824 0 44.947 20.123 44.947 44.947v35.288c0 26.304-21.323 47.627-47.627 47.627h-.144c-26.304 0-47.627-21.323-47.627-47.627z" fill="#ffc6a1"/><path d="m178.209 95.315h-5.504c-4.248 0-8.353.602-12.248 1.703 18.868 5.334 32.699 22.668 32.699 43.244v35.288c0 21.087-13.71 38.962-32.699 45.227 4.697 1.55 9.712 2.4 14.928 2.4h.144c26.303 0 47.627-21.323 47.627-47.627v-35.288c0-24.823-20.124-44.947-44.947-44.947z" fill="#fdaa8e"/><g><path d="m469.404 36.5h-21.26c-4.143 0-7.5 3.358-7.5 7.5s3.357 7.5 7.5 7.5h21.26c15.216 0 27.596 12.379 27.596 27.596v236.404h-15v-241.5c0-4.142-3.357-7.5-7.5-7.5h-437c-4.143 0-7.5 3.358-7.5 7.5v53.314c0 4.142 3.357 7.5 7.5 7.5s7.5-3.358 7.5-7.5v-45.814h422v234h-211.586v-41.445c0-20.956-17.049-38.005-38.005-38.005h-16.64v-11.516c11.464-5.931 20.597-15.757 25.618-27.728 2.753 1.369 5.776 2.114 8.912 2.114 11.652 0 20.11-10.867 20.11-25.84 0-14.086-8.082-23.55-20.11-23.55-1.586 0-3.139.196-4.645.556v-9.824c0-28.919-23.527-52.447-52.446-52.447h-5.504c-28.92 0-52.447 23.527-52.447 52.447v9.824c-1.506-.361-3.06-.557-4.647-.557-12.028 0-20.11 9.464-20.11 23.55 0 14.973 8.458 25.84 20.11 25.84 3.137 0 6.161-.745 8.914-2.115 5.021 11.97 14.153 21.795 25.615 27.727v11.518h-16.631c-20.956 0-38.005 17.049-38.005 38.005v41.446h-50.503v-156.254c0-4.142-3.357-7.5-7.5-7.5s-7.5 3.358-7.5 7.5v156.254h-15v-236.404c0-15.217 12.38-27.596 27.596-27.596h373.549c4.143 0 7.5-3.358 7.5-7.5s-3.357-7.5-7.5-7.5h-373.549c-23.488 0-42.596 19.108-42.596 42.596v262.808c0 23.488 19.108 42.596 42.596 42.596h162.719c-2.93 15.209-13.915 47-54.545 47-16.69 0-30.27 13.579-30.27 30.27 0 7.571 6.159 13.73 13.729 13.73h25.079c4.143 0 7.5-3.358 7.5-7.5s-3.357-7.5-7.5-7.5h-23.756c.647-7.828 7.225-14 15.217-14h210.461c7.992 0 14.569 6.172 15.217 14h-185.138c-4.143 0-7.5 3.358-7.5 7.5s3.357 7.5 7.5 7.5h186.462c7.57 0 13.729-6.159 13.729-13.73 0-16.691-13.579-30.27-30.27-30.27-40.63 0-51.609-31.803-54.536-47h162.71c23.487 0 42.596-19.108 42.596-42.596v-262.808c0-23.488-19.108-42.596-42.596-42.596zm-228.99 279h-15v-22.941h15zm-5.114-150.97c4.446 0 5.11 5.357 5.11 8.55 0 5.774-2.388 10.84-5.11 10.84-1.826 0-3.603-1.109-4.913-2.961.174-1.78.268-3.584.268-5.409v-8.418c1.285-1.645 2.943-2.602 4.645-2.602zm-119.69 19.39c-2.723 0-5.11-5.065-5.11-10.84 0-3.193.664-8.55 5.11-8.55 1.702 0 3.362.959 4.647 2.607v8.413c0 1.825.094 3.629.268 5.409-1.311 1.853-3.089 2.961-4.915 2.961zm19.648-8.37v-10.531c0-.046 0-.092 0-.139v-24.618c0-20.648 16.799-37.447 37.447-37.447h5.504c20.647 0 37.446 16.798 37.446 37.447v35.288c0 22.126-18.001 40.127-40.127 40.127h-.144c-22.125 0-40.126-18.001-40.126-40.127zm29.882 54.157c3.322.627 6.744.97 10.245.97h.144c3.5 0 6.92-.342 10.241-.969v6.342h-20.63zm-31.631 21.343h23.928c.068.002.135.01.203.01h35.63c.069 0 .135-.008.203-.01h23.936c12.685 0 23.005 10.32 23.005 23.005v3.504h-22.5c-4.143 0-7.5 3.358-7.5 7.5v30.441h-69.91v-30.441c0-4.142-3.357-7.5-7.5-7.5h-22.5v-3.504c0-12.685 10.32-23.005 23.005-23.005zm-23.005 41.509h15v22.941h-15zm189.954 118.958c3.538 6.664 8.646 13.858 15.924 19.983h-120.758c7.279-6.124 12.387-13.318 15.926-19.982 5.444-10.251 7.879-20.458 8.957-27.018h70.996c1.078 6.559 3.513 16.766 8.955 27.017zm168.946-42.017h-426.808c-15.216 0-27.596-12.379-27.596-27.596v-11.404h482v11.404c0 15.217-12.38 27.596-27.596 27.596z"/><path d="m416.5 198.5c0-38.322-31.178-69.5-69.5-69.5s-69.5 31.178-69.5 69.5 31.178 69.5 69.5 69.5 69.5-31.178 69.5-69.5zm-124 0c0-30.051 24.448-54.5 54.5-54.5s54.5 24.449 54.5 54.5-24.448 54.5-54.5 54.5-54.5-24.449-54.5-54.5z"/><path d="m156.619 153.255c-4.143 0-7.5 3.358-7.5 7.5v2.742c0 4.142 3.357 7.5 7.5 7.5s7.5-3.358 7.5-7.5v-2.742c0-4.142-3.357-7.5-7.5-7.5z"/><path d="m194.294 170.998c4.143 0 7.5-3.358 7.5-7.5v-2.742c0-4.142-3.357-7.5-7.5-7.5s-7.5 3.358-7.5 7.5v2.742c0 4.142 3.357 7.5 7.5 7.5z"/><path d="m382.567 185.105c2.96-2.897 3.011-7.646.114-10.606-2.897-2.959-7.646-3.012-10.606-.114l-30.121 29.48-19.758-16.984c-3.139-2.699-7.875-2.344-10.576.798-2.7 3.141-2.343 7.876.799 10.577l24.975 21.469c1.409 1.212 3.15 1.813 4.888 1.813 1.899 0 3.794-.718 5.247-2.14z"/></g></g></svg>